# xmcd
#
# Track frame offsets:
#	150
#	18306
#	42269
#	60638
#	81201
#	105030
#	120519
#	145988
#	170229
#	186797
#	219252
#
# Disc length: 3157 seconds
# Revision: 0
# Processed by: cddbd v1.5.2PL0 Copyright (c) Steve Scherf et al.
# Submitted via: dBpowerAMP V12.0
#
DISCID=8d0c530b
DTITLE=Crooked Eye Tommy - Butterflies And Snakes
DYEAR=2015
DGENRE=Blues
TTITLE0=Crooked Eye Tommy
TTITLE1=Come On In
TTITLE2=I Stole The Blues
TTITLE3=Time Will Tell
TTITLE4=Tide Pool
TTITLE5=Somebody's Got To Pay
TTITLE6=Love Devine
TTITLE7=After The Burn
TTITLE8=Mad And Disgusted
TTITLE9=Over And Over
TTITLE10=Southern Heart
EXTD=
EXTT0=
EXTT1=
EXTT2=
EXTT3=
EXTT4=
EXTT5=
EXTT6=
EXTT7=
EXTT8=
EXTT9=
EXTT10=
PLAYORDER=
